SplineFontDB: 3.0
FontName: Spasm
FullName: Spasm
FamilyName: Spasm
Weight: Medium
Copyright: Created by TheMonsterFromTheDeep with FontForge 2.0 (http://fontforge.sf.net)
UComments: "2016-8-4: Created." 
Version: 001.000
ItalicAngle: 0
UnderlinePosition: -100
UnderlineWidth: 50
Ascent: 800
Descent: 200
LayerCount: 2
Layer: 0 0 "Back"  1
Layer: 1 0 "Fore"  0
XUID: [1021 649 112547232 11126184]
FSType: 8
OS2Version: 0
OS2_WeightWidthSlopeOnly: 0
OS2_UseTypoMetrics: 1
CreationTime: 1470372436
ModificationTime: 1471042678
PfmFamily: 17
TTFWeight: 500
TTFWidth: 5
LineGap: 90
VLineGap: 0
OS2TypoAscent: 0
OS2TypoAOffset: 1
OS2TypoDescent: 0
OS2TypoDOffset: 1
OS2TypoLinegap: 90
OS2WinAscent: 0
OS2WinAOffset: 1
OS2WinDescent: 0
OS2WinDOffset: 1
HheadAscent: 0
HheadAOffset: 1
HheadDescent: 0
HheadDOffset: 1
OS2Vendor: 'PfEd'
MarkAttachClasses: 2
"" 0 
DEI: 91125
LangName: 1033 
Encoding: Custom
UnicodeInterp: none
NameList: Adobe Glyph List
DisplaySize: -24
AntiAlias: 1
FitToEm: 1
WinInfo: 96 16 4
BeginPrivate: 0
EndPrivate
Grid
-1000 69 m 0
 2000 69 l 0
EndSplineSet
TeXData: 1 0 0 346030 173015 115343 0 1048576 115343 783286 444596 497025 792723 393216 433062 380633 303038 157286 324010 404750 52429 2506097 1059062 262144
BeginChars: 256 95

StartChar: o
Encoding: 111 111 0
Width: 700
VWidth: 0
Flags: W
HStem: -10 50<284.37 415.63> 460 50<284.37 415.63>
VStem: 100 100<147.273 352.727> 500 100<147.273 352.727>
LayerCount: 2
Fore
SplineSet
200 250 m 0
 200 158 248 40 350 40 c 0
 452 40 500 158 500 250 c 0
 500 342 452 460 350 460 c 0
 248 460 200 342 200 250 c 0
100 250 m 0
 100 384 205 510 350 510 c 0
 495 510 600 384 600 250 c 0
 600 116 495 -10 350 -10 c 0
 205 -10 100 116 100 250 c 0
EndSplineSet
EndChar

StartChar: a
Encoding: 97 97 1
Width: 700
VWidth: 0
Flags: W
HStem: -10 76<185.17 346.702> 0 21G<487.172 615> 210 86<182.823 368.427> 410 87<204.738 368.243>
VStem: 86 87<79.5553 199.42> 105 72<362 383.926> 426 100<250 350.319>
LayerCount: 2
Fore
SplineSet
105 362 m 1xb6
 105 489 197 497 257 497 c 0
 265 497 273 497 280 497 c 0
 425 497 526 384 526 250 c 1
 545 140 l 1
 615 0 l 1
 492 0 l 1x76
 471 87 l 1
 427 29 359 -10 278 -10 c 0
 133 -10 86 31 86 165 c 0xba
 86 253 166 296 244 296 c 0
 298 296 379 277 426 250 c 1
 426 342 391 410 289 410 c 0
 234 410 177 394 177 332 c 1
 105 362 l 1xb6
412 172 m 1
 379 197 307 210 252 210 c 0
 214 210 173 206 173 155 c 0
 173 77 182 66 276 66 c 0xba
 342 66 390 112 412 172 c 1
EndSplineSet
EndChar

StartChar: n
Encoding: 110 110 2
Width: 700
VWidth: 0
Flags: W
HStem: 0 21G<134 225 495 588> 436 80<286.617 416.804> 474 20G<141.026 194.754>
VStem: 134 91<0 358.317> 495 93<0 341.534>
LayerCount: 2
Fore
SplineSet
104 455 m 1xd8
 180 494 l 1xb8
 225 433 l 1
 231 460 295 516 345 516 c 0
 490 516 588 369 588 235 c 0
 588 101 588 98 588 0 c 1
 554 0 529 0 495 0 c 1
 495 0 495 164 495 235 c 0
 495 327 451 436 349 436 c 0
 247 436 225 306 225 262 c 2
 225 0 l 1
 134 0 l 1
 134 375 l 1
 104 455 l 1xd8
EndSplineSet
EndChar

StartChar: e
Encoding: 101 101 3
Width: 700
VWidth: 0
Flags: W
HStem: -10 73<273.658 437.979> 225 71<204 500> 447 63<278.659 439.029>
VStem: 100 101<147.238 225 296 352.5> 500 100<296 368.532>
LayerCount: 2
Fore
SplineSet
521 163 m 1
 575 142 l 1
 576 139 576 135 576 132 c 0
 576 62 428 -10 350 -10 c 0
 205 -10 100 116 100 250 c 0
 100 384 205 510 350 510 c 0
 495 510 600 404 600 270 c 0
 600 233 542 225 500 225 c 2
 201 225 l 1
 201 142 257 63 350 63 c 0
 410 63 504 102 521 163 c 1
500 296 m 1
 500 388 452 447 350 447 c 0
 265 447 217 374 204 296 c 1
 500 296 l 1
EndSplineSet
EndChar

StartChar: h
Encoding: 104 104 4
Width: 700
VWidth: 0
Flags: W
HStem: 0 21G<134 225 495 588> 436 89<286.326 417.378>
VStem: 134 91<0 358.317> 134 82<433 775> 495 93<0 343.084>
LayerCount: 2
Fore
SplineSet
134 775 m 1xd8
 216 788 l 1
 216 433 l 1xd8
 226 509 309 525 359 525 c 0
 504 525 588 369 588 235 c 0
 588 101 588 98 588 0 c 1
 554 0 529 0 495 0 c 1
 495 0 495 164 495 235 c 0
 495 327 451 436 349 436 c 0
 247 436 225 306 225 262 c 2
 225 0 l 1
 134 0 l 1xe8
 134 375 l 1
 134 775 l 1xd8
EndSplineSet
EndChar

StartChar: c
Encoding: 99 99 6
Width: 700
VWidth: 0
Flags: W
HStem: -10 73<277.864 438.327> 444 78<287.403 451.857>
VStem: 100 100<158.776 346.11> 521 57<130.187 140 362 385.74>
LayerCount: 2
Fore
SplineSet
359 522 m 0
 359 522 575 502 575 362 c 1
 521 341 l 1
 509 393 461 444 359 444 c 3
 257 444 200 342 200 250 c 0
 200 158 248 63 350 63 c 0
 410 63 504 102 521 163 c 1
 578 140 l 1
 579 137 579 134 579 130 c 0
 579 60 428 -10 350 -10 c 0
 205 -10 100 131 100 265 c 0
 100 399 214 522 359 522 c 0
EndSplineSet
EndChar

StartChar: m
Encoding: 109 109 7
Width: 700
VWidth: 0
Flags: W
HStem: 0 21G<60 150 328 416 576 670> 389 121<434.293 540.309> 397 119<180.812 301.282> 474 20G<67.0256 119.462>
VStem: 60 90<0 366.344> 328 88<0 375.203> 576 94<0 348.225>
LayerCount: 2
Fore
SplineSet
416 0 m 1xce
 328 0 l 1
 328 331 l 1
 321 364 311 397 248 397 c 0xae
 153 397 150 321 150 273 c 0
 150 269 150 265 150 262 c 2
 150 0 l 1
 60 0 l 1
 60 375 l 1
 30 455 l 1
 106 494 l 1x9e
 141 442 l 1
 147 469 179 516 253 516 c 0xae
 283 516 359 450 377 450 c 0
 391 450 440 510 501 510 c 0
 631 510 670 387 670 235 c 0
 670 101 670 98 670 0 c 1
 636 0 610 0 576 0 c 1
 576 0 576 164 576 235 c 0
 576 343 545 389 485 389 c 0
 432 389 421 360 416 331 c 1
 416 0 l 1xce
EndSplineSet
EndChar

StartChar: b
Encoding: 98 98 8
Width: 700
VWidth: 0
Flags: W
HStem: -10 50<279.719 415.63> 0 21G<72 174> 460 50<281.069 415.63>
VStem: 94 92<151.757 348.243> 94 84<59.3182 66 443 779> 500 100<147.273 352.727>
LayerCount: 2
Fore
SplineSet
186 250 m 0xb4
 186 158 248 40 350 40 c 0
 452 40 500 158 500 250 c 0
 500 342 452 460 350 460 c 0
 248 460 186 342 186 250 c 0xb4
94 779 m 1x6c
 178 792 l 1
 178 443 l 1
 221 484 284 510 350 510 c 0
 495 510 600 384 600 250 c 0
 600 116 495 -10 350 -10 c 0xac
 280 -10 218 20 174 66 c 1
 174 0 l 1
 72 0 l 1
 94 87 l 1
 94 779 l 1x6c
EndSplineSet
EndChar

StartChar: d
Encoding: 100 100 9
Width: 700
VWidth: 0
Flags: W
HStem: -10 50<284.37 423.342> 0 21G<526 628> 460 50<284.37 417.772>
VStem: 100 100<147.273 352.727> 514 92<142.81 346.062 440 698.591> 526 80<549.919 779>
LayerCount: 2
Fore
SplineSet
514 247 m 1xb8
 514 339 450 460 350 460 c 0
 248 460 200 342 200 250 c 0
 200 158 248 40 350 40 c 0
 448 40 514 141 514 231 c 1
 514 247 l 1xb8
606 95 m 1xb4
 628 0 l 1
 526 0 l 1x74
 526 62 l 1
 482 18 421 -10 350 -10 c 0
 205 -10 100 116 100 250 c 0
 100 384 205 510 350 510 c 0
 416 510 474 483 517 440 c 1
 517 557 522 675 522 792 c 1
 606 779 l 1
 606 95 l 1xb4
EndSplineSet
EndChar

StartChar: p
Encoding: 112 112 10
Width: 700
VWidth: 0
Flags: W
HStem: -10 50<281.021 415.63> 460 50<281.461 415.63>
VStem: 75 97<465.667 510> 90 100<-179 52 147.422 352.578> 500 100<147.273 352.727>
LayerCount: 2
Fore
SplineSet
190 250 m 0xd8
 190 158 248 40 350 40 c 0
 452 40 500 158 500 250 c 0
 500 342 452 460 350 460 c 0
 248 460 190 342 190 250 c 0xd8
189 52 m 1
 189 -30 188 -111 188 -192 c 1
 90 -179 l 1
 90 319 l 1
 90 415 l 1xd8
 75 510 l 1
 172 510 l 1
 172 438 l 1xe8
 216 482 281 510 350 510 c 0
 495 510 600 384 600 250 c 0
 600 116 495 -10 350 -10 c 0
 287 -10 232 14 189 52 c 1
EndSplineSet
EndChar

StartChar: q
Encoding: 113 113 11
Width: 700
VWidth: 0
Flags: W
HStem: -10 50<284.37 418.81> 460 50<284.37 418.539>
VStem: 100 100<147.273 352.727> 510 100<-100.05 53 147.422 352.578> 528 97<465.667 510>
LayerCount: 2
Fore
SplineSet
510 250 m 0xf0
 510 342 452 460 350 460 c 0
 248 460 200 342 200 250 c 0
 200 158 248 40 350 40 c 0
 452 40 510 158 510 250 c 0xf0
610 230 m 2
 610 71 l 1
 610 59 610 45 610 31 c 0
 610 -33 613 -110 641 -110 c 1
 622 -196 l 1
 532 -196 510 -36 510 53 c 1xf0
 467 15 413 -10 350 -10 c 0
 205 -10 100 116 100 250 c 0
 100 384 205 510 350 510 c 0
 419 510 484 482 528 438 c 1
 528 510 l 1
 625 510 l 1xe8
 610 415 l 1
 610 230 l 2
EndSplineSet
EndChar

StartChar: s
Encoding: 115 115 12
Width: 700
VWidth: 0
Flags: W
HStem: -13 78<251.429 483.534> 210 90<221.212 479.285> 424 83<213.237 466.776>
VStem: 100 75<332.572 390.813> 520 81<96.8787 178.467>
LayerCount: 2
Fore
SplineSet
145 130 m 0
 183 92 285 65 373 65 c 0
 452 65 520 86 520 140 c 3
 520 171 492 210 350 210 c 3
 105 210 100 306 100 356 c 0
 100 359 100 361 100 363 c 3
 100 468 201 507 315 507 c 0
 426 507 549 469 600 418 c 0
 555 373 l 0
 521 408 434 424 352 424 c 0
 260 424 175 404 175 363 c 3
 175 338 221 300 350 300 c 3
 579 300 601 223 601 171 c 0
 601 159 600 148 600 140 c 3
 600 28 506 -13 397 -13 c 0
 283 -13 152 32 100 85 c 0
 145 130 l 0
EndSplineSet
EndChar

StartChar: f
Encoding: 102 102 13
Width: 700
VWidth: 0
Flags: W
HStem: 0 21G<232 322> 413 78<68 224 322 532> 715 77<370.532 507.826>
VStem: 224 91<491 657.441> 232 90<0 413>
LayerCount: 2
Fore
SplineSet
232 0 m 1xe8
 232 413 l 1xe8
 68 413 l 1
 68 490 l 1
 224 490 l 1
 224 577 l 1
 224 646 293 792 443 792 c 0
 534 792 568 739 619 656 c 1
 560 633 l 1
 526 685 496 715 436 715 c 0
 410 715 315 700 315 576 c 1
 315 491 l 1xf0
 532 491 l 1
 532 413 l 1
 322 413 l 1
 322 0 l 1
 232 0 l 1xe8
EndSplineSet
EndChar

StartChar: i
Encoding: 105 105 14
Width: 700
VWidth: 0
Flags: W
HStem: 0 78<309.429 495.013> 470 130<137.303 234.697>
VStem: 120 132<486.85 583.15> 166 85<135.375 410> 524 60<105.356 122>
LayerCount: 2
Fore
SplineSet
524 142 m 3xd8
 584 122 l 0
 584 63 502 0 411 0 c 0
 261 0 166 133 166 202 c 1
 166 342 l 1
 166 444 l 1
 226 434 l 1
 251 410 l 1
 251 208 l 1
 251 84 374 78 400 78 c 0
 460 78 524 99 524 142 c 3xd8
120 535 m 0xe8
 120 571 150 600 186 600 c 0
 222 600 252 571 252 535 c 0
 252 499 222 470 186 470 c 0
 150 470 120 499 120 535 c 0xe8
EndSplineSet
EndChar

StartChar: j
Encoding: 106 106 15
Width: 700
VWidth: 0
Flags: W
HStem: -191 78<286.778 437.864> 469 130<414.303 511.697>
VStem: 119 60<-31.0283 -13> 397 132<485.85 582.15> 439 85<357.096 416.72>
LayerCount: 2
Fore
SplineSet
179 7 m 3xe8
 179 -36 298 -113 358 -113 c 0
 384 -113 491 -107 491 17 c 1
 439 410 l 1
 464 434 l 1
 524 444 l 1
 524 342 l 1
 582 11 l 1
 582 -58 497 -191 347 -191 c 0
 256 -191 119 -72 119 -13 c 0
 179 7 l 3xe8
529 534 m 0xf0
 529 498 499 469 463 469 c 0
 427 469 397 498 397 534 c 0
 397 570 427 599 463 599 c 0
 499 599 529 570 529 534 c 0xf0
EndSplineSet
EndChar

StartChar: t
Encoding: 116 116 16
Width: 700
VWidth: 0
Flags: W
HStem: -16 77<385.668 508.086> 431 76<62 249 337 555> 776 20G<273.692 336>
VStem: 249 88<116.328 431 509 770>
LayerCount: 2
Fore
SplineSet
62 509 m 1
 255 509 l 1
 255 770 l 1
 336 796 l 1
 336 695 334 608 334 507 c 1
 555 507 l 1
 555 431 l 1
 337 431 l 1
 337 208 l 1
 337 84 413 61 439 61 c 0
 499 61 504 69 535 123 c 1
 595 103 l 1
 549 17 541 -16 450 -16 c 0
 300 -16 249 133 249 202 c 1
 249 431 l 1
 62 431 l 1
 62 509 l 1
EndSplineSet
EndChar

StartChar: l
Encoding: 108 108 17
Width: 700
VWidth: 0
Flags: W
HStem: 0 78<307.75 496.466> 776 20G<209.75 236>
VStem: 152 84<138.816 732>
LayerCount: 2
Fore
SplineSet
152 732 m 1
 236 796 l 1
 236 208 l 1
 236 84 374 78 400 78 c 0
 460 78 458 78 534 120 c 0
 594 100 l 0
 548 14 502 0 411 0 c 0
 261 0 152 133 152 202 c 1
 152 732 l 1
EndSplineSet
EndChar

StartChar: u
Encoding: 117 117 18
Width: 700
VWidth: 0
Flags: W
HStem: -10 86<275.422 383.536 563.369 579> 466 20G<82 170>
VStem: 82 88<310.848 486> 512 79<334.703 476>
LayerCount: 2
Fore
SplineSet
544 145 m 1
 552 103 572 70 618 70 c 1
 579 -7 l 1
 524 -7 462 -5 420 9 c 1
 395 -2 365 -10 332 -10 c 0
 85 -10 82 335 82 476 c 0
 82 480 82 483 82 486 c 1
 170 486 l 1
 170 394 214 76 316 76 c 0
 477 76 512 384 512 476 c 1
 591 476 l 1
 591 400 544 256 544 145 c 1
EndSplineSet
EndChar

StartChar: v
Encoding: 118 118 19
Width: 700
VWidth: 0
Flags: W
HStem: -10 21G<332.5 370> 466 20G<100 200 500 600>
VStem: 100 100<390.938 486> 500 100<390.938 486>
LayerCount: 2
Fore
SplineSet
600 486 m 0
 600 352 390 -10 350 -10 c 0
 315 -10 100 352 100 486 c 0
 200 486 l 0
 200 394 329 126 350 126 c 0
 374 126 500 394 500 486 c 0
 600 486 l 0
EndSplineSet
EndChar

StartChar: w
Encoding: 119 119 20
Width: 700
VWidth: 0
Flags: W
HStem: -10 21G<220.5 253 460 490> 480 20G<33 133 583 672>
VStem: 33 100<383.791 500> 583 89<389.933 507>
LayerCount: 2
Fore
SplineSet
238 -10 m 1
 203 -10 33 366 33 500 c 0
 133 500 l 0
 133 408 221 166 242 166 c 1
 260 166 315 294 349 307 c 1
 380 300 456 160 470 160 c 0
 494 160 583 415 583 507 c 0
 672 507 l 0
 672 373 510 -10 470 -10 c 0
 450 -10 421 31 357 159 c 1
 292 31 268 -10 238 -10 c 1
EndSplineSet
EndChar

StartChar: y
Encoding: 121 121 21
Width: 700
VWidth: 0
Flags: W
HStem: 466 20G<100 200 500 600>
VStem: 100 100<405.007 486> 500 100<407.637 486>
LayerCount: 2
Fore
SplineSet
199 -195 m 0
 146 -144 l 3
 186 -144 309 62 309 62 c 1
 235 179 100 396 100 486 c 0
 200 486 l 0
 200 394 329 126 350 126 c 0
 374 126 500 394 500 486 c 0
 600 486 l 0
 600 352 251 -195 199 -195 c 0
EndSplineSet
EndChar

StartChar: k
Encoding: 107 107 22
Width: 700
VWidth: 0
Flags: W
HStem: 0 21G<90 196 440.816 613>
VStem: 90 106<0 207> 90 84<395 732>
LayerCount: 2
Fore
SplineSet
196 207 m 1xc0
 196 0 l 1
 90 0 l 1xc0
 90 732 l 1
 174 787 l 1
 174 395 l 1xa0
 490 525 l 1
 490 428 l 1
 256 291 l 1
 613 0 l 1
 467 0 l 1
 196 207 l 1xc0
EndSplineSet
EndChar

StartChar: r
Encoding: 114 114 23
Width: 700
VWidth: 0
Flags: W
HStem: 0 21G<152 239> 419 80<263.096 550.281> 490 20G<140.778 214>
VStem: 152 87<0 385>
LayerCount: 2
Fore
SplineSet
159 510 m 1xb0
 225 486 l 1
 258 492 311 499 373 499 c 0
 438 499 513 492 584 467 c 1
 584 389 l 1
 517 411 457 419 406 419 c 0xd0
 303 419 239 388 239 388 c 1
 239 0 l 1
 152 0 l 1
 152 385 l 1
 118 465 l 1
 159 510 l 1xb0
EndSplineSet
EndChar

StartChar: x
Encoding: 120 120 24
Width: 700
VWidth: 0
Flags: W
HStem: 0 21G<100 187 487 600> 192 120<313.853 380.49> 466 20G<100 210 510 600>
VStem: 100 110<417.615 486> 100 87<0 64.6154> 487 113<0 68.8125> 510 90<423.887 486>
LayerCount: 2
Fore
SplineSet
600 0 m 1xe4
 567 0 520 0 487 0 c 1
 487 92 360 192 350 192 c 0
 339 192 187 92 187 0 c 1
 100 0 l 1xec
 100 85 195 185 268 248 c 1
 195 307 100 402 100 486 c 1
 210 486 l 1
 210 394 329 312 350 312 c 0
 370 312 510 394 510 486 c 1
 600 486 l 1xf2
 600 401 505 306 432 248 c 1
 505 185 600 84 600 0 c 1xe4
EndSplineSet
EndChar

StartChar: g
Encoding: 103 103 25
Width: 700
VWidth: 0
Flags: W
HStem: -200 80<236.677 437.625> -10 50<284.37 420.271> 460 50<284.37 419.343>
VStem: 100 100<147.273 352.727> 508 102<-54.0979 49 143.198 354.622> 528 97<465.667 510>
LayerCount: 2
Fore
SplineSet
152 -64 m 1xf8
 229 -101 296 -120 352 -120 c 0
 424 -120 477 -87 508 -15 c 1
 508 49 l 1xf8
 466 12 412 -10 350 -10 c 0
 205 -10 100 116 100 250 c 0
 100 384 205 510 350 510 c 0
 419 510 484 482 528 438 c 1
 528 510 l 1
 625 510 l 1xf4
 610 415 l 1
 610 319 l 1
 610 -40 l 1
 610 -118 496 -200 356 -200 c 0
 291 -200 220 -182 152 -137 c 1
 152 -64 l 1xf8
508 237 m 1
 508 260 l 1
 508 350 448 460 350 460 c 0
 248 460 200 342 200 250 c 0
 200 158 248 40 350 40 c 0
 447 40 508 147 508 237 c 1
EndSplineSet
EndChar

StartChar: z
Encoding: 122 122 26
Width: 700
VWidth: 0
Flags: W
HStem: 0 89<319.875 575> 399 90<126 526.799> 406 80<131.968 527>
VStem: 82 102<37 120.179>
LayerCount: 2
Fore
SplineSet
575 89 m 0xb0
 600 0 l 0
 379 0 199 0 100 0 c 3
 94 0 82 21 82 53 c 0
 82 112 125 211 335 295 c 0
 455 343 527 381 527 406 c 3xb0
 527 406 251 399 126 399 c 0
 100 489 l 0xd0
 321 489 438 486 600 486 c 3
 618 486 638 470 638 442 c 0
 638 394 580 310 350 210 c 0
 220 153 184 121 184 112 c 3
 184 103 416 89 575 89 c 0xb0
EndSplineSet
EndChar

StartChar: zero
Encoding: 48 48 27
Width: 700
VWidth: 0
Flags: HW
HStem: -10 79<293.631 429.209> 660 78<272.726 421.487>
VStem: 100 77<188.541 529.126> 527 73<187.781 536.171>
LayerCount: 2
Fore
SplineSet
100 367 m 0
 100 501 145 738 350 738 c 0
 583 738 600 501 600 367 c 0
 600 233 585 -10 350 -10 c 0
 103 -10 100 233 100 367 c 0
223 135 m 1
 425 643 l 1
 404 654 379 660 350 660 c 0
 185 660 177 459 177 367 c 0
 177 308 179 204 223 135 c 1
290 79 m 1
 307 73 327 69 350 69 c 0
 522 69 527 268 527 367 c 4
 527 420 524 510 489 576 c 1
 290 79 l 1
EndSplineSet
EndChar

StartChar: two
Encoding: 50 50 28
Width: 700
VWidth: 0
Flags: W
HStem: 0 74<206 596> 217 86<287.672 410.558> 702 62<279.573 420.427>
VStem: 100 100<453.66 606.977> 116 90<74 136.442> 500 100<408.541 606.977>
LayerCount: 2
Fore
SplineSet
596 0 m 1xec
 116 0 l 1
 116 74 l 2xec
 116 117 189 303 348 303 c 0
 435 303 500 412 500 504 c 0
 500 596 452 702 350 702 c 0
 248 702 200 596 200 504 c 0
 200 488 200 472 204 456 c 1
 109 436 l 1
 103 458 100 481 100 504 c 0xf4
 100 638 205 764 350 764 c 0
 495 764 600 638 600 504 c 0
 600 370 510 217 365 217 c 0
 284 217 215 154 206 74 c 1
 596 74 l 1
 596 0 l 1xec
EndSplineSet
EndChar

StartChar: O
Encoding: 79 79 29
Width: 700
VWidth: 0
Flags: W
HStem: -10 79<252.032 450.681> 685 78<261.012 447.543>
VStem: 30 89<224.902 509.044> 582 91<222.686 518.325>
LayerCount: 2
Fore
SplineSet
30 372 m 0
 30 572 145 763 350 763 c 0
 583 763 673 586 673 372 c 0
 673 164 585 -10 350 -10 c 0
 103 -10 30 168 30 372 c 0
119 372 m 0
 119 210 181 69 350 69 c 0
 533 69 582 218 582 372 c 0
 582 532 519 685 350 685 c 0
 185 685 119 518 119 372 c 0
EndSplineSet
EndChar

StartChar: H
Encoding: 72 72 30
Width: 700
VWidth: 0
Flags: W
HStem: 0 21G<136 216 464 554> 311 78<216 469>
VStem: 136 80<0 311 389 724> 469 85<0 311 389 637.953>
LayerCount: 2
Fore
SplineSet
554 0 m 1
 464 0 l 1
 464 104 469 207 469 311 c 1
 216 311 l 1
 216 0 l 1
 136 0 l 1
 136 724 l 1
 216 736 l 1
 216 389 l 1
 469 389 l 1
 469 502 474 615 474 728 c 1
 554 740 l 1
 554 0 l 1
EndSplineSet
EndChar

StartChar: J
Encoding: 74 74 31
Width: 700
VWidth: 0
Flags: W
HStem: 3 78<256.778 400.22> 651 100<250 397 496 602>
VStem: 89 60<162.972 181>
LayerCount: 2
Fore
SplineSet
250 751 m 1
 602 751 l 1
 602 654 l 1
 496 654 l 1
 552 205 l 1
 552 136 467 3 317 3 c 0
 226 3 89 122 89 181 c 1
 149 201 l 1
 149 158 268 81 328 81 c 0
 354 81 448 88 448 212 c 1
 397 651 l 1
 250 651 l 1
 250 751 l 1
EndSplineSet
EndChar

StartChar: I
Encoding: 73 73 32
Width: 700
VWidth: 0
Flags: W
HStem: 0 69<168 303 382 520> 663 77<168 303 382 520>
VStem: 303 79<69 663>
LayerCount: 2
Fore
SplineSet
168 740 m 1
 520 740 l 1
 520 666 l 1
 382 666 l 1
 382 69 l 1
 520 69 l 1
 520 0 l 1
 168 0 l 1
 168 63 l 1
 303 63 l 1
 303 663 l 1
 168 663 l 1
 168 740 l 1
EndSplineSet
EndChar

StartChar: Q
Encoding: 81 81 33
Width: 700
VWidth: 0
Flags: W
HStem: -10 79<238.032 442.424> 0 21G<649.889 673.647> 685 78<247.012 433.543>
VStem: 16 89<224.902 509.044> 568 91<235.854 518.325>
LayerCount: 2
Fore
SplineSet
16 372 m 0xb8
 16 572 131 763 336 763 c 0
 569 763 659 586 659 372 c 0
 659 302 649 237 627 180 c 1
 689 136 l 1
 671 0 l 1x78
 576 90 l 1
 524 28 446 -10 336 -10 c 0
 89 -10 16 168 16 372 c 0xb8
105 372 m 0
 105 210 167 69 336 69 c 0xb8
 421 69 476 100 512 150 c 1
 410 242 l 1
 410 335 l 1
 551 234 l 1
 563 277 568 324 568 372 c 0
 568 532 505 685 336 685 c 0
 171 685 105 518 105 372 c 0
EndSplineSet
EndChar

StartChar: U
Encoding: 85 85 34
Width: 700
VWidth: 0
Flags: W
HStem: -10 111<280.796 434.492>
VStem: 29 90<488.355 733> 583 94<379.955 733>
LayerCount: 2
Fore
SplineSet
673 733 m 1
 673 682 677 611 677 533 c 0
 677 294 641 -10 350 -10 c 0
 51 -10 29 383 29 625 c 0
 29 666 29 703 29 733 c 1
 119 733 l 1
 119 571 120 101 354 101 c 0
 566 101 583 438 583 637 c 0
 583 675 583 708 583 733 c 1
 673 733 l 1
EndSplineSet
EndChar

StartChar: C
Encoding: 67 67 35
Width: 700
VWidth: 0
Flags: W
HStem: -10 79<252.032 452.457> 685 78<261.012 445.785>
VStem: 30 89<224.902 509.044>
LayerCount: 2
Fore
SplineSet
558 528 m 1
 526 619 461 685 350 685 c 0
 185 685 119 518 119 372 c 0
 119 210 181 69 350 69 c 0
 460 69 521 123 553 199 c 1
 626 146 l 1
 578 52 490 -10 350 -10 c 0
 103 -10 30 168 30 372 c 0
 30 572 145 763 350 763 c 0
 517 763 611 672 650 542 c 1
 558 528 l 1
EndSplineSet
EndChar

StartChar: V
Encoding: 86 86 36
Width: 700
VWidth: 0
Flags: W
HStem: -10 21G<294.5 405.5>
VStem: 30 89<602.678 733> 582 91<614.838 733>
LayerCount: 2
Fore
SplineSet
673 733 m 0
 673 525 461 -10 350 -10 c 0
 239 -10 30 529 30 733 c 0
 119 733 l 0
 119 571 317 101 354 101 c 0
 383 101 582 579 582 733 c 0
 673 733 l 0
EndSplineSet
EndChar

StartChar: G
Encoding: 71 71 37
Width: 700
VWidth: 0
Flags: W
HStem: -10 79<252.032 456.32> 262 76<338 533> 685 78<261.012 445.785>
VStem: 30 89<224.902 509.044> 533 94<133.411 262>
LayerCount: 2
Fore
SplineSet
627 146 m 1
 579 52 490 -10 350 -10 c 0
 103 -10 30 168 30 372 c 0
 30 572 145 763 350 763 c 0
 517 763 611 672 650 542 c 1
 558 528 l 1
 526 619 461 685 350 685 c 0
 185 685 119 518 119 372 c 0
 119 210 181 69 350 69 c 0
 440 69 498 105 533 160 c 1
 533 262 l 1
 338 262 l 1
 338 338 l 1
 627 338 l 1
 627 146 l 1
EndSplineSet
EndChar

StartChar: P
Encoding: 80 80 38
Width: 700
VWidth: 0
Flags: W
HStem: 0 21G<130 225> 334 84<245 409.268> 660 80<245 414.25>
VStem: 130 115<418 660> 130 95<0 334> 507 66<480.46 592.025>
LayerCount: 2
Fore
SplineSet
245 418 m 1xf4
 347 418 507 439 507 531 c 0
 507 645 347 660 245 660 c 1
 245 418 l 1xf4
205 740 m 2
 350 740 573 737 573 531 c 0
 573 334 370 334 225 334 c 1
 225 0 l 1
 130 0 l 1
 130 740 l 1xec
 205 740 l 2
EndSplineSet
EndChar

StartChar: D
Encoding: 68 68 39
Width: 700
VWidth: 0
Flags: W
HStem: -10 79<156 317.466> 696 67<156 305.041>
VStem: 74 82<69 696> 521 104<241.711 507.824>
LayerCount: 2
Fore
SplineSet
156 696 m 0
 156 69 l 0
 339 69 521 120 521 373 c 0
 521 652 325 696 156 696 c 0
74 -10 m 0
 74 763 l 0
 307 763 625 745 625 372 c 0
 625 17 309 -10 74 -10 c 0
EndSplineSet
EndChar

StartChar: Y
Encoding: 89 89 40
Width: 700
VWidth: 0
Flags: W
HStem: 0 21G<294 404>
VStem: 30 89<697.224 733> 294 110<0 409.31> 582 91<694.253 733>
LayerCount: 2
Fore
SplineSet
294 393 m 1
 203 484 30 681 30 733 c 1
 119 733 l 1
 119 705 332 458 354 458 c 0
 376 458 582 697 582 733 c 1
 673 733 l 1
 673 685 496 482 404 391 c 1
 404 0 l 1
 294 0 l 1
 294 393 l 1
EndSplineSet
EndChar

StartChar: X
Encoding: 88 88 41
Width: 700
VWidth: 0
Flags: W
HStem: 0 21G<30 119 582 673> 312 114<335.911 380.973>
VStem: 30 89<0 39.1904 694.271 733> 582 91<0 47.32 686.215 733>
LayerCount: 2
Fore
SplineSet
673 0 m 1
 582 0 l 1
 582 36 379 312 357 312 c 0
 335 312 119 28 119 0 c 1
 30 0 l 1
 30 52 201 268 294 370 c 1
 200 471 30 682 30 733 c 1
 119 733 l 1
 119 705 337 426 359 426 c 0
 381 426 582 697 582 733 c 1
 673 733 l 1
 673 686 504 470 412 368 c 1
 505 265 673 47 673 0 c 1
EndSplineSet
EndChar

StartChar: T
Encoding: 84 84 42
Width: 700
VWidth: 0
Flags: W
HStem: 658 92<49 303 384 638.949> 672 78<413.826 656>
VStem: 303 81<4 658>
LayerCount: 2
Fore
SplineSet
49 750 m 1xa0
 656 750 l 1
 656 672 l 1x60
 565 672 475 661 384 661 c 1
 384 4 l 1
 303 4 l 1
 303 658 l 1
 49 658 l 1
 49 750 l 1xa0
EndSplineSet
EndChar

StartChar: S
Encoding: 83 83 43
Width: 700
VWidth: 0
Flags: W
HStem: -5 89<260.365 483.106> 339 88<273.185 449.343> 702 84<213.509 451.799>
VStem: 83 80<536.557 657.855> 532 86<129.752 259.682>
LayerCount: 2
Fore
SplineSet
131 178 m 0
 173 127 289 84 385 84 c 0
 465 84 532 113 532 191 c 3
 532 231 502 339 350 339 c 3
 89 339 83 520 83 591 c 0
 83 595 83 598 83 601 c 3
 83 735 191 786 313 786 c 0
 432 786 563 737 617 672 c 0
 569 614 l 0
 528 664 414 702 317 702 c 0
 234 702 163 674 163 601 c 3
 163 569 212 427 350 427 c 3
 595 427 618 308 618 234 c 0
 618 216 617 201 617 191 c 3
 617 46 516 -5 400 -5 c 0
 278 -5 139 52 83 120 c 0
 131 178 l 0
EndSplineSet
EndChar

StartChar: W
Encoding: 87 87 44
Width: 700
VWidth: 0
Flags: W
HStem: 0 238<136.5 214 507 570> 733 20G<33 133 583 672>
VStem: 33 100<518.977 753> 583 89<508.992 740>
LayerCount: 2
Fore
SplineSet
154 0 m 1
 119 0 33 619 33 753 c 0
 133 753 l 0
 133 661 184 238 205 238 c 1
 223 238 327 447 361 460 c 1
 392 453 500 232 514 232 c 0
 538 232 583 648 583 740 c 0
 672 740 l 0
 672 606 590 0 550 0 c 0
 530 0 463 117 363 276 c 1
 280 175 184 0 154 0 c 1
EndSplineSet
EndChar

StartChar: L
Encoding: 76 76 45
Width: 700
VWidth: 0
Flags: W
HStem: 10 78<186 594> 738 20G<106 186>
VStem: 106 80<88 746>
LayerCount: 2
Fore
SplineSet
106 10 m 1
 106 746 l 1
 186 758 l 1
 186 88 l 1
 594 88 l 1
 594 10 l 1
 106 10 l 1
EndSplineSet
EndChar

StartChar: N
Encoding: 78 78 46
Width: 700
VWidth: 0
Flags: W
HStem: 0 21G<50 133 556.65 660>
VStem: 50 83<0 572> 550 110<170 726>
LayerCount: 2
Fore
SplineSet
660 0 m 1
 572 0 l 1
 133 572 l 1
 133 0 l 1
 50 0 l 1
 50 724 l 1
 128 724 l 1
 550 170 l 1
 550 726 l 1
 660 726 l 1
 660 0 l 1
EndSplineSet
EndChar

StartChar: A
Encoding: 65 65 47
Width: 700
VWidth: 0
Flags: W
HStem: 0 21G<70 159 539 630> 285 104<252 456>
VStem: 70 89<0 130.439> 539 91<0 145.806>
LayerCount: 2
Fore
SplineSet
630 0 m 5
 539 0 l 5
 539 61 516 172 486 285 c 5
 225 285 l 5
 189 166 159 68 159 0 c 5
 70 0 l 5
 70 204 246 743 357 743 c 4
 468 743 630 208 630 0 c 5
252 389 m 5
 456 389 l 5
 416 521 375 632 361 632 c 4
 343 632 296 520 252 389 c 5
EndSplineSet
EndChar

StartChar: at
Encoding: 64 64 48
Width: 700
VWidth: 0
Flags: W
HStem: -54 67<233.321 468.001> 62 53<273.709 400.494> 216 61<270.917 419.93> 357 61<282.471 397.75> 486 73<206.673 453.12>
VStem: 44 80<118.152 402.127> 208 60<120.372 211.759> 221 50<317.304 342.576> 446 70<244 298.995> 596 61<146.885 354.269>
LayerCount: 2
Fore
SplineSet
446 243 m 1xfec0
 446 250 418 357 350 357 c 1
 311 357 271 346 271 302 c 1
 240 306 221 321 221 323 c 0xfdc0
 221 413 286 418 328 418 c 0
 334 418 339 418 344 418 c 0
 446 418 516 338 516 244 c 1
 560 166 l 1
 590 146 l 1
 595 164 596 183 596 216 c 0
 596 225 596 237 596 248 c 0
 596 414 485 486 319 486 c 0
 153 486 124 409 124 243 c 0
 124 77 196 13 362 13 c 0
 401 13 434 17 464 25 c 1
 484 -36 l 1
 447 -48 403 -54 353 -54 c 0
 149 -54 44 42 44 246 c 0
 44 450 105 559 309 559 c 0
 513 559 657 454 657 250 c 0
 657 154 648 105 603 54 c 1
 539 106 512 136 497 161 c 1
 469 104 412 62 342 62 c 0
 240 62 208 91 208 185 c 0
 208 247 264 277 318 277 c 0
 356 277 413 262 446 243 c 1xfec0
436 190 m 1
 413 208 363 216 324 216 c 0
 298 216 268 214 268 178 c 0xfec0
 268 123 275 115 341 115 c 0
 388 115 421 148 436 190 c 1
EndSplineSet
EndChar

StartChar: M
Encoding: 77 77 49
Width: 700
VWidth: 0
Flags: W
HStem: 0 21G<30 130 571 660> 548 208<60.5 165> 562 178<545 630>
VStem: 30 100<0 261.099> 571 89<0 246.278>
LayerCount: 2
Fore
SplineSet
78 756 m 0xd8
 108 756 300 497 352 479 c 1
 394 507 590 740 610 740 c 0
 650 740 660 134 660 0 c 1
 571 0 l 1
 571 27 571 87 571 158 c 0
 571 328 569 562 552 562 c 0xb8
 538 562 438 417 356 349 c 1
 274 403 174 548 156 548 c 0
 135 548 130 92 130 0 c 1
 30 0 l 1
 30 134 43 756 78 756 c 0xd8
EndSplineSet
EndChar

StartChar: Z
Encoding: 90 90 50
Width: 700
VWidth: 0
Flags: W
HStem: 0 81<341.7 582> 625 94<127 382.261> 635 81<283.735 528>
VStem: 82 109<48 169.967> 528 109<584.577 635>
LayerCount: 2
Fore
SplineSet
582 81 m 0xb8
 600 0 l 0
 379 0 199 0 100 0 c 3
 94 0 82 27 82 69 c 0
 82 150 125 287 336 411 c 0
 456 482 528 598 528 635 c 3xb8
 528 635 252 625 127 625 c 0
 100 719 l 0xd8
 321 719 438 716 600 716 c 3
 618 716 637 696 637 659 c 0
 637 595 578 480 346 331 c 0
 216 247 191 128 191 115 c 3
 191 102 423 81 582 81 c 0xb8
EndSplineSet
EndChar

StartChar: E
Encoding: 69 69 51
Width: 700
VWidth: 0
Flags: W
HStem: 0 80<208 594> 346 78<207 404> 668 78<206 598>
VStem: 120 87<80 346 424 668>
LayerCount: 2
Fore
SplineSet
120 746 m 1
 598 746 l 1
 598 668 l 1
 206 668 l 1
 206 588 207 504 207 424 c 1
 404 424 l 1
 404 346 l 1
 207 346 l 1
 207 258 208 168 208 80 c 1
 594 80 l 1
 594 0 l 1
 120 0 l 1
 120 746 l 1
EndSplineSet
EndChar

StartChar: B
Encoding: 66 66 52
Width: 700
VWidth: 0
Flags: W
HStem: -0 81<221 401.844> 323 95<221 385.268> 660 78<221 390.25>
VStem: 106 115<81 323 418 660> 483 66<480.323 591.992> 503 88<144.603 247.784>
LayerCount: 2
Fore
SplineSet
181 738 m 1xf4
 326 738 549 737 549 531 c 0xf8
 549 446 512 398 457 370 c 1
 533 342 591 290 591 194 c 0
 591 9 378 -0 230 -0 c 0
 213 -0 196 0 181 0 c 1
 106 0 l 1
 106 738 l 1
 181 738 l 1xf4
221 418 m 1
 323 418 483 439 483 531 c 0
 483 645 323 660 221 660 c 1
 221 418 l 1
221 81 m 1
 323 81 503 98 503 190 c 0xf4
 503 304 323 323 221 323 c 1
 221 81 l 1
EndSplineSet
EndChar

StartChar: R
Encoding: 82 82 53
Width: 700
VWidth: 0
Flags: W
HStem: 0 21G<121 216 468.238 572> 336 82<236 314> 660 80<236 405.25>
VStem: 121 115<418 660> 121 95<0 336> 498 66<481.44 592.025>
LayerCount: 2
Fore
SplineSet
196 740 m 1xec
 341 740 564 737 564 531 c 0
 564 418 497 369 412 349 c 1
 572 0 l 1
 533 0 517 0 478 0 c 1
 314 336 l 1
 280 336 247 336 216 336 c 1
 216 0 l 1
 121 0 l 1
 121 740 l 1
 196 740 l 1xec
236 418 m 1xf4
 338 418 498 439 498 531 c 0
 498 645 338 660 236 660 c 1
 236 418 l 1xf4
EndSplineSet
EndChar

StartChar: K
Encoding: 75 75 54
Width: 700
VWidth: 0
Flags: W
HStem: 0 21G<455.088 623>
VStem: 77 102<8 272> 77 94<489 770>
LayerCount: 2
Fore
SplineSet
179 272 m 1xc0
 179 8 l 1
 77 8 l 1xc0
 77 770 l 1
 171 796 l 1
 171 489 l 1xa0
 560 790 l 1
 560 692 l 1
 211 377 l 1
 623 0 l 1
 477 0 l 1
 179 272 l 1xc0
EndSplineSet
EndChar

StartChar: F
Encoding: 70 70 55
Width: 700
VWidth: 0
Flags: W
HStem: 0 21G<122 203> 341 83<203 475> 660 86<202 453.06> 668 78<355.177 594>
VStem: 122 81<0 341 424 660>
LayerCount: 2
Fore
SplineSet
202 660 m 1xe8
 202 580 203 504 203 424 c 1
 475 424 l 1
 475 346 l 1
 384 346 294 341 203 341 c 1
 203 0 l 1
 122 0 l 1
 122 736 l 1
 122 746 l 1
 594 746 l 1
 594 668 l 1xd8
 463 668 333 660 202 660 c 1xe8
EndSplineSet
EndChar

StartChar: one
Encoding: 49 49 56
Width: 700
VWidth: 0
Flags: HW
VStem: 282.447 81.5527<449.333 611.849> 294.741 85.8515<78.6158 349.096>
LayerCount: 2
Fore
SplineSet
118 79 m 1x40
 282 79 l 1
 282 612 l 1x80
 140 573 l 1
 280 720 l 1
 364 720 l 1
 364 78 l 1x40
 578 78 l 1
 578 0 l 1
 118 0 l 1
 118 79 l 1x40
EndSplineSet
EndChar

StartChar: three
Encoding: 51 51 57
Width: 700
VWidth: 0
Flags: W
HStem: 0 84<160 316.296> 332 44<262 339.75> 656 88<156 300.391>
VStem: 504 84<154.418 243.208> 516 70<509.19 595.453>
LayerCount: 2
Fore
SplineSet
98 744 m 0xe8
 150 744 227 753 304 753 c 0
 444 753 586 723 586 556 c 0xe8
 586 378 490 360 490 360 c 0
 490 360 588 360 588 194 c 0
 588 21 454 -10 320 -10 c 0
 241 -10 161 0 108 0 c 0
 160 84 l 0
 262 84 504 102 504 194 c 0xf0
 504 268 369 332 262 332 c 0
 262 376 l 0
 329 376 516 480 516 558 c 0
 516 650 258 656 156 656 c 0
 98 744 l 0xe8
EndSplineSet
EndChar

StartChar: eight
Encoding: 56 56 58
Width: 700
VWidth: 0
Flags: W
HStem: -10 68<260.879 439.121> 333 69<274.758 428.239> 678 72<260.879 439.121>
VStem: 115 94<109.218 280.565 465.626 623.909> 491 94<109.218 280.565 464.118 623.909>
LayerCount: 2
Fore
SplineSet
209 195 m 0
 209 106 254 58 350 58 c 0
 446 58 491 106 491 195 c 0
 491 284 446 333 350 333 c 0
 254 333 209 284 209 195 c 0
115 540 m 0
 115 669 214 750 350 750 c 0
 486 750 585 669 585 540 c 0
 585 462 550 402 491 368 c 1
 550 333 585 273 585 195 c 0
 585 66 486 -10 350 -10 c 0
 214 -10 115 66 115 195 c 0
 115 273 151 333 210 368 c 1
 151 402 115 462 115 540 c 0
352 402 m 24
 428 402 491 456 491 540 c 0
 491 629 446 678 350 678 c 0
 254 678 209 629 209 540 c 0
 209 456 275 402 352 402 c 24
EndSplineSet
EndChar

StartChar: hyphen
Encoding: 45 45 59
Width: 700
VWidth: 0
Flags: W
HStem: 323 96<121 579>
LayerCount: 2
Fore
SplineSet
121 419 m 1
 579 419 l 1
 579 323 l 1
 121 323 l 1
 121 419 l 1
EndSplineSet
EndChar

StartChar: greater
Encoding: 62 62 60
Width: 700
VWidth: 0
Flags: W
HStem: 81 101<131 197.955> 486 101<131 188.688>
LayerCount: 2
Fore
SplineSet
131 587 m 0
 178 587 599 375 599 334 c 0
 599 299 195 81 131 81 c 0
 131 182 l 0
 184 182 430 311 430 332 c 0
 430 356 157 486 131 486 c 0
 131 587 l 0
EndSplineSet
EndChar

StartChar: four
Encoding: 52 52 61
Width: 700
VWidth: 0
Flags: W
HStem: 0 21G<472 554> 312 77<216 472>
VStem: 136 80<389 724> 472 82<0 312 389 635.288> 484 70<504.627 740>
LayerCount: 2
Fore
SplineSet
554 0 m 1xf0
 472 0 l 1
 472 312 l 1
 360 312 246 312 136 312 c 1
 136 724 l 1
 216 736 l 1
 216 389 l 1
 472 389 l 1xf0
 472 508 484 621 484 740 c 1
 554 740 l 1xe8
 554 0 l 1xf0
EndSplineSet
EndChar

StartChar: five
Encoding: 53 53 62
Width: 700
VWidth: 0
Flags: W
HStem: -10 95<253.721 428.503> 349 80<185 461.25> 640 78<185 588>
VStem: 103 82<429 640> 120 100<119.885 261.681> 497 100<153.858 315.755>
LayerCount: 2
Fore
SplineSet
103 718 m 1xf4
 588 718 l 1
 588 640 l 1
 185 640 l 1
 185 429 l 1xf4
 237 429 293 423 345 423 c 1
 490 423 597 373 597 239 c 0
 597 105 490 -10 345 -10 c 0
 200 -10 120 84 120 218 c 0
 120 238 121 258 126 277 c 1
 223 261 l 1
 221 246 220 232 220 218 c 0xec
 220 126 239 85 341 85 c 0
 443 85 497 147 497 239 c 0
 497 331 451 349 349 349 c 1
 103 349 l 1
 103 718 l 1xf4
EndSplineSet
EndChar

StartChar: backslash
Encoding: 92 92 63
Width: 700
VWidth: 0
Flags: W
HStem: 0 21G<361.5 540> 737 20G<84 177.828>
LayerCount: 2
Fore
SplineSet
418 0 m 1
 305 252 195 516 84 757 c 1
 168 757 l 1
 540 0 l 1
 418 0 l 1
EndSplineSet
EndChar

StartChar: seven
Encoding: 55 55 64
Width: 700
VWidth: 0
Flags: HW
HStem: 620 109<115 209.8>
VStem: 406 108<0 48.125>
LayerCount: 2
Fore
SplineSet
494 605 m 1
 114 620 l 1
 114 694 l 1
 593 694 l 1
 593 601 l 1
 514 0 l 1
 406 0 l 1
 494 605 l 1
EndSplineSet
EndChar

StartChar: six
Encoding: 54 54 65
Width: 700
VWidth: 0
Flags: W
HStem: -10 75<274.448 425.516> 380 81<251.198 453.762> 500 21G<508 600> 668 74<271.195 424.363>
VStem: 100 100<150.088 422.806> 508 92<156.703 329.277 500 593.912>
LayerCount: 2
Fore
SplineSet
200 250 m 0
 200 158 247 65 349 65 c 0
 451 65 508 158 508 250 c 0
 508 342 455 380 353 380 c 0
 251 380 200 342 200 250 c 0
207 424 m 1
 251 448 306 461 365 461 c 0
 510 461 600 384 600 250 c 0
 600 116 495 -10 350 -10 c 0
 205 -10 100 116 100 250 c 0
 100 665 204 742 319 742 c 0
 346 742 373 738 400 733 c 0
 506 713 600 634 600 500 c 1
 508 500 l 1
 508 592 470 639 384 661 c 0
 368 665 352 668 336 668 c 0
 269 668 207 620 207 424 c 1
EndSplineSet
EndChar

StartChar: nine
Encoding: 57 57 66
Width: 700
VWidth: 0
Flags: W
HStem: 0 77<277.905 430.575> 249 81<287.756 475.816> 655 75<273.691 439.966>
VStem: 114 93<420.503 593.773> 142 84<131.454 211> 520 100<373.283 553.562>
LayerCount: 2
Fore
SplineSet
520 447 m 0xf4
 520 539 472 655 370 655 c 0
 268 655 207 606 207 514 c 0
 207 422 263 330 365 330 c 0
 467 330 520 355 520 447 c 0xf4
511 281 m 1
 467 260 411 249 353 249 c 0
 208 249 114 380 114 514 c 0xf4
 114 648 224 730 369 730 c 0
 514 730 620 581 620 447 c 0
 620 39 433 0 358 0 c 0
 250 0 142 77 142 211 c 1
 226 220 l 1xec
 226 128 269 77 358 77 c 0
 409 77 486 98 511 281 c 1
EndSplineSet
EndChar

StartChar: period
Encoding: 46 46 67
Width: 700
VWidth: 0
Flags: W
HStem: -31 159<248.829 356.718>
VStem: 222 161<-4.71765 102.264>
LayerCount: 2
Fore
SplineSet
222 49 m 0
 222 93 259 128 303 128 c 0
 347 128 383 93 383 49 c 0
 383 5 347 -31 303 -31 c 0
 259 -31 222 5 222 49 c 0
EndSplineSet
EndChar

StartChar: question
Encoding: 63 63 68
Width: 700
VWidth: 0
Flags: W
HStem: -15 110<293.847 380.77> 218 84<376.903 459.335> 648 90<268.548 425.452>
VStem: 97 100<447 569.381> 282 111<-3.15331 83.1533> 295 72<144.619 213.89> 497 100<340.506 570.8>
LayerCount: 2
Fore
SplineSet
282 40 m 0xfa
 282 70 307 95 337 95 c 0
 367 95 393 70 393 40 c 0
 393 10 367 -15 337 -15 c 0
 307 -15 282 10 282 40 c 0xfa
399 218 m 0
 385 218 367 193 367 154 c 3
 367 146 352 143 336 143 c 0
 316 143 295 148 295 157 c 3xf6
 295 198 337 286 386 302 c 0
 488 302 497 368 497 478 c 0
 497 570 449 648 347 648 c 0
 245 648 197 570 197 478 c 0
 197 468 198 458 198 447 c 1
 100 447 l 1
 98 460 97 464 97 478 c 0
 97 612 202 738 347 738 c 0
 492 738 597 612 597 478 c 0
 597 316 544 218 399 218 c 0
EndSplineSet
EndChar

StartChar: colon
Encoding: 58 58 69
Width: 700
VWidth: 0
Flags: W
HStem: -31 159<248.829 356.718> 333 159<248.829 356.718>
VStem: 222 161<-4.71765 102.264 358.736 465.718>
LayerCount: 2
Fore
SplineSet
222 412 m 0
 222 456 259 492 303 492 c 0
 347 492 383 456 383 412 c 0
 383 368 347 333 303 333 c 0
 259 333 222 368 222 412 c 0
222 49 m 0
 222 93 259 128 303 128 c 0
 347 128 383 93 383 49 c 0
 383 5 347 -31 303 -31 c 0
 259 -31 222 5 222 49 c 0
EndSplineSet
EndChar

StartChar: exclam
Encoding: 33 33 70
Width: 700
VWidth: 0
Flags: HW
HStem: -30.9844 158.984<248.753 356.718>
VStem: 221.832 161.168<-4.71058 102.264> 249 93<236 293.898>
LayerCount: 2
Fore
SplineSet
190 724 m 1xa0
 342 724 l 1
 342 236 l 1
 249 236 l 1
 190 724 l 1xa0
221.832 49 m 0xc0
 221.832 93 259 128 303 128 c 0
 347 128 383 93 383 49 c 0
 383 5 347 -30.9844 303 -30.9844 c 0
 259 -30.9844 221.832 5 221.832 49 c 0xc0
EndSplineSet
EndChar

StartChar: comma
Encoding: 44 44 71
Width: 700
VWidth: 0
Flags: W
HStem: -85 230
VStem: 222 166<23.3406 108.158>
LayerCount: 2
Fore
SplineSet
222 49 m 0
 222 93 263 145 307 145 c 0
 351 145 388 110 388 65 c 0
 388 21 254 -85 210 -85 c 0
 198 -85 193 -78 193 -67 c 0
 193 -38 222 17 222 49 c 0
EndSplineSet
EndChar

StartChar: semicolon
Encoding: 59 59 72
Width: 700
VWidth: 0
Flags: W
HStem: 333 159<248.829 356.718>
VStem: 222 161<17.6321 108.038 358.736 465.718>
LayerCount: 2
Fore
SplineSet
222 412 m 0
 222 456 259 492 303 492 c 0
 347 492 383 456 383 412 c 0
 383 368 347 333 303 333 c 0
 259 333 222 368 222 412 c 0
222 49 m 0
 222 93 263 145 307 145 c 0
 351 145 388 109 388 65 c 0
 388 21 254 -85 210 -85 c 0
 198 -85 193 -78 193 -67 c 0
 193 -38 222 17 222 49 c 0
EndSplineSet
EndChar

StartChar: quotesingle
Encoding: 39 39 73
Width: 700
VWidth: 0
Flags: HW
HStem: 461.84 259.16<341.686 397.76>
VStem: 283.16 132.522<542.975 634 657.742 710.212>
LayerCount: 2
Fore
SplineSet
394 462 m 0
 370 462 285 471 285 631 c 0
 285 642 283 651 283 659 c 0
 283 717 312 721 351 721 c 0
 389 721 416 707 416 658 c 0
 416 651 415 643 414 634 c 0
 394 471 399 462 394 462 c 0
EndSplineSet
EndChar

StartChar: quotedbl
Encoding: 34 34 74
Width: 700
VWidth: 0
Flags: HW
VStem: 166 133<540.424 634 658 710.117> 401 133<541.956 634 658 710.117>
LayerCount: 2
Fore
SplineSet
512 455 m 0
 493 455 401 459 401 631 c 0
 401 642 401 651 401 659 c 0
 401 717 430 721 469 721 c 0
 507 721 534 707 534 658 c 0
 534 651 533 643 532 634 c 0
 510 459 520 455 512 455 c 0
271 459 m 0
 250 459 166 466 166 631 c 0
 166 642 166 651 166 659 c 0
 166 717 195 721 234 721 c 0
 272 721 299 707 299 658 c 0
 299 651 298 643 297 634 c 0
 276 466 278 459 271 459 c 0
EndSplineSet
EndChar

StartChar: dollar
Encoding: 36 36 75
Width: 700
VWidth: 0
Flags: HW
HStem: -50 92<227.683 331 421 469.975> 654 84<193.024 253 342 440.419>
VStem: 64.9863 80.0137<488.221 610.632> 514 86.3613<85.2438 215.707>
LayerCount: 2
Fore
SplineSet
247 792 m 1
 327 792 l 1
 333 738 l 1
 441 738 551 684 599 626 c 1
 551 568 l 1
 516 611 428 645 342 654 c 1
 373 380 l 1
 579 380 600 264 600 190 c 0
 600 172 599 156 599 145 c 0
 599 17 520 -39 421 -50 c 1
 427 -104 l 1
 347 -104 l 1
 341 -50 l 1
 230 -50 113.986 14 64.9863 74 c 1
 113 132 l 1
 150 87 243 49 331 40 c 1
 303 294 l 1
 70 294 64.9863 477 64.9863 546 c 0
 64.9863 549 64.9863 552 64.9863 555 c 0
 64.9863 674 150 727 253 738 c 1
 247 792 l 1
262 654 m 1
 196 646 145 617 145 555 c 0
 145 526 184 409 292 385 c 1
 262 654 l 1
411 42 m 1
 470 51 514 82 514 145 c 0
 514 180 491 267 383 288 c 1
 411 42 l 1
EndSplineSet
EndChar

StartChar: bracketleft
Encoding: 91 91 76
Width: 700
VWidth: 0
Flags: HW
LayerCount: 2
Fore
SplineSet
168 0 m 1
 168 728 l 1
 514 728 l 1
 514 650 l 1
 235 650 l 1
 235 78 l 1
 518 78 l 1
 518 0 l 1
 168 0 l 1
EndSplineSet
EndChar

StartChar: bracketright
Encoding: 93 93 77
Width: 700
VWidth: 0
Flags: HW
HStem: 0 78<166 442.515> 650 76<172 407.114>
LayerCount: 2
Fore
SplineSet
516 0 m 1
 166 0 l 1
 166 78 l 1
 407 78 l 1
 407 650 l 1
 170 650 l 1
 170 726 l 1
 516 726 l 1
 516 0 l 1
EndSplineSet
EndChar

StartChar: plus
Encoding: 43 43 78
Width: 700
VWidth: 0
Flags: W
HStem: 323 96<121 304 403 579>
VStem: 307 96<140 323 419 598>
LayerCount: 2
Fore
SplineSet
400 419 m 1
 579 419 l 1
 579 323 l 1
 403 323 l 1
 403 262 405 201 405 140 c 1
 307 140 l 1
 307 323 l 1
 121 323 l 1
 121 419 l 1
 304 419 l 1
 304 598 l 1
 400 598 l 1
 400 419 l 1
EndSplineSet
EndChar

StartChar: equal
Encoding: 61 61 79
Width: 700
VWidth: 0
Flags: W
HStem: 242 96<121 579> 377 96<121 579>
LayerCount: 2
Fore
SplineSet
121 338 m 1
 579 338 l 1
 579 242 l 1
 121 242 l 1
 121 338 l 1
121 473 m 1
 579 473 l 1
 579 377 l 1
 121 377 l 1
 121 473 l 1
EndSplineSet
EndChar

StartChar: underscore
Encoding: 95 95 80
Width: 700
VWidth: 0
Flags: W
HStem: -48 96<64 636>
LayerCount: 2
Fore
SplineSet
64 48 m 1
 636 48 l 1
 636 -48 l 1
 64 -48 l 1
 64 48 l 1
EndSplineSet
EndChar

StartChar: asciicircum
Encoding: 94 94 81
Width: 700
VWidth: 0
Flags: W
HStem: 499 21G<120 212 488 580> 658 90<319.686 376.986>
VStem: 120 92<499 538.729>
LayerCount: 2
Fore
SplineSet
580 499 m 0
 488 499 l 0
 488 513 370 658 348 658 c 0
 329 658 212 527 212 499 c 0
 120 499 l 0
 120 533 318 748 350 748 c 0
 387 748 580 524 580 499 c 0
EndSplineSet
EndChar

StartChar: slash
Encoding: 47 47 82
Width: 700
VWidth: 0
Flags: W
HStem: 0 21G<132 274.5> 737 20G<449.387 588>
LayerCount: 2
Fore
SplineSet
218 0 m 1
 132 0 l 1
 458 757 l 1
 588 757 l 1
 477 516 331 252 218 0 c 1
EndSplineSet
EndChar

StartChar: grave
Encoding: 96 96 83
Width: 700
VWidth: 0
Flags: W
HStem: 442 277<268 415>
VStem: 200 131<604.817 676.316>
LayerCount: 2
Fore
SplineSet
200 629 m 0
 200 640 200 649 200 657 c 0
 200 715 229 719 268 719 c 0
 312 719 294 691 331 632 c 0
 417 495 497 496 497 479 c 0
 497 475 492 469 481 460 c 0
 467 448 443 442 415 442 c 0
 334 442 200 495 200 629 c 0
EndSplineSet
EndChar

StartChar: bar
Encoding: 124 124 84
Width: 700
VWidth: 0
Flags: W
HStem: 0 21G<320 380>
VStem: 320 60<0 734>
LayerCount: 2
Fore
SplineSet
380 0 m 1
 320 0 l 1
 320 734 l 1
 380 734 l 1
 380 0 l 1
EndSplineSet
EndChar

StartChar: less
Encoding: 60 60 85
Width: 700
VWidth: 0
Flags: W
HStem: 91 101<488.045 555> 496 101<497.312 555>
LayerCount: 2
Fore
SplineSet
555 597 m 0
 555 496 l 0
 529 496 256 366 256 342 c 0
 256 321 502 192 555 192 c 0
 555 91 l 0
 491 91 87 309 87 344 c 0
 87 385 508 597 555 597 c 0
EndSplineSet
EndChar

StartChar: asterisk
Encoding: 42 42 86
Width: 700
VWidth: 0
Flags: W
HStem: 444 291
VStem: 304 96<676 735>
LayerCount: 2
Fore
SplineSet
483 707 m 1
 483 611 l 1
 405 582 l 1
 478 517 l 1
 416 444 l 1
 358 527 l 1
 299 444 l 1
 237 516 l 1
 304 575 l 1
 224 590 l 1
 224 686 l 1
 304 671 l 1
 304 735 l 1
 400 735 l 1
 400 676 l 1
 483 707 l 1
EndSplineSet
EndChar

StartChar: parenleft
Encoding: 40 40 87
Width: 700
VWidth: 0
Flags: W
HStem: -10 21G<402 437> 743 20G<419 437>
VStem: 263 89<215.739 512.329>
LayerCount: 2
Fore
SplineSet
437 -10 m 1
 367 -10 263 179 263 372 c 1
 263 572 401 763 437 763 c 0
 437 685 l 0
 415 685 352 518 352 372 c 0
 352 210 409 69 437 69 c 0
 437 -10 l 1
EndSplineSet
EndChar

StartChar: parenright
Encoding: 41 41 88
Width: 700
VWidth: 0
Flags: W
HStem: -10 21G<279 314> 743 20G<279 297>
VStem: 364 89<215.739 512.329>
LayerCount: 2
Fore
SplineSet
279 -10 m 1
 279 69 l 0
 307 69 364 210 364 372 c 0
 364 518 301 685 279 685 c 0
 279 763 l 0
 315 763 453 572 453 372 c 1
 453 179 349 -10 279 -10 c 1
EndSplineSet
EndChar

StartChar: braceleft
Encoding: 123 123 89
Width: 700
VWidth: 0
Flags: W
HStem: -10 79<416.025 458> 685 79<412.357 458>
VStem: 242 89<331.725 415.719> 286 89<123.343 326.44 418.584 633.353>
LayerCount: 2
Fore
SplineSet
375 288 m 1xd0
 375 80 433 69 458 69 c 0
 458 -10 l 1
 452 -10 445 -10 438 -10 c 0
 373 -10 286 4 286 292 c 1xd0
 286 317 242 343 242 372 c 1xe0
 242 403 286 432 286 458 c 1
 286 742 386 764 436 764 c 0
 446 764 453 763 458 763 c 0
 458 685 l 0
 456 685 453 685 450 685 c 0
 426 685 375 674 375 458 c 1xd0
 375 432 331 404 331 372 c 0xe0
 331 341 375 313 375 288 c 1xd0
EndSplineSet
EndChar

StartChar: braceright
Encoding: 125 125 90
Width: 700
VWidth: 0
Flags: W
HStem: -10 79<266 307.975> 685 79<266 311.643>
VStem: 349 89<123.343 326.44 418.584 633.353> 393 89<331.725 415.719>
LayerCount: 2
Fore
SplineSet
349 288 m 1xe0
 349 313 393 341 393 372 c 0xd0
 393 404 349 432 349 458 c 1
 349 674 298 685 274 685 c 0
 271 685 268 685 266 685 c 0
 266 763 l 0
 271 763 278 764 288 764 c 0
 338 764 438 742 438 458 c 1xe0
 438 432 482 403 482 372 c 1xd0
 482 343 438 317 438 292 c 1
 438 4 351 -10 286 -10 c 0
 279 -10 272 -10 266 -10 c 1
 266 69 l 0
 291 69 349 80 349 288 c 1xe0
EndSplineSet
EndChar

StartChar: percent
Encoding: 37 37 91
Width: 700
VWidth: 0
Flags: W
HStem: 102 22<480.267 543.606> 313 23<479.493 544.371> 411 23<162.317 227.153> 623 22<163.091 226.391>
VStem: 82 45<460.29 596.378> 262 45<460.29 596.378> 399 45<150.622 286.71> 579 45<150.622 286.71>
LayerCount: 2
Fore
SplineSet
579 219 m 0
 579 260 558 313 512 313 c 0
 466 313 444 260 444 219 c 0
 444 177 466 124 512 124 c 0
 558 124 579 177 579 219 c 0
624 219 m 0
 624 158 577 102 512 102 c 0
 447 102 399 158 399 219 c 0
 399 279 447 336 512 336 c 0
 577 336 624 279 624 219 c 0
240 43 m 1
 167 43 l 1
 444 685 l 1
 535 685 l 1
 441 481 336 257 240 43 c 1
262 528 m 0
 262 570 240 623 195 623 c 0
 149 623 127 570 127 528 c 0
 127 487 149 434 195 434 c 0
 240 434 262 487 262 528 c 0
307 528 m 0
 307 468 260 411 195 411 c 0
 129 411 82 468 82 528 c 0
 82 589 129 645 195 645 c 0
 260 645 307 589 307 528 c 0
EndSplineSet
EndChar

StartChar: numbersign
Encoding: 35 35 92
Width: 700
VWidth: 0
Flags: W
HStem: 190 88<121 211 289 396 481 579> 478 89<121 208 287 393 479 579>
VStem: 211 76<30 190 278 478 567 708> 396 83<30 190 278 478 567 708>
LayerCount: 2
Fore
SplineSet
289 190 m 1
 289 30 l 1
 211 30 l 1
 211 190 l 1
 121 190 l 1
 121 278 l 1
 211 278 l 1
 211 478 l 1
 121 478 l 1
 121 567 l 1
 208 567 l 1
 208 708 l 1
 285 708 l 1
 285 567 l 1
 393 567 l 1
 393 708 l 1
 477 708 l 1
 477 567 l 1
 579 567 l 1
 579 478 l 1
 479 478 l 1
 479 278 l 1
 579 278 l 1
 579 190 l 1
 481 190 l 1
 481 30 l 1
 396 30 l 1
 396 190 l 1
 289 190 l 1
287 278 m 1
 396 278 l 1
 396 478 l 1
 287 478 l 1
 287 278 l 1
EndSplineSet
EndChar

StartChar: ampersand
Encoding: 38 38 93
Width: 700
VWidth: 0
Flags: W
HStem: -10 68<260.879 438.122> 608 77<238.847 355.426>
VStem: 115 94<109.218 261.914 424.487 577.168> 419 67<444.843 537.419> 491 94<204 290>
LayerCount: 2
Fore
SplineSet
435 608 m 1
 452 588 486 535 486 480 c 0
 486 434 462 387 385 359 c 0
 366 353 347 345 328 336 c 1
 375 298 435 250 491 204 c 1
 491 223 491 242 491 290 c 1
 584 290 l 1
 584 243 585 220 585 195 c 0
 585 173 582 153 577 135 c 1
 636 88 678 54 678 54 c 1
 625 -10 l 1
 539 64 l 1
 497 16 430 -10 350 -10 c 0
 214 -10 115 66 115 195 c 0
 115 259 147 310 197 350 c 1
 142 385 111 431 111 506 c 0
 111 635 237 685 290 685 c 0
 371 685 413 624 435 608 c 1
265 385 m 1
 307 392 342 417 383 436 c 0
 409 448 419 461 419 479 c 0
 419 500 409 521 404 528 c 1
 389 550 361 608 292 608 c 0
 279 608 205 595 205 506 c 0
 205 477 216 427 265 385 c 1
474 118 m 1
 262 296 l 1
 231 270 209 237 209 195 c 0
 209 106 254 58 350 58 c 0
 413 58 454 79 474 118 c 1
EndSplineSet
EndChar

StartChar: asciitilde
Encoding: 126 126 94
Width: 700
VWidth: 0
Flags: W
HStem: 229 84<401.328 506.065> 351 97<178.503 287.294>
VStem: 85 66<238.141 321.442> 536 64<345.594 439>
LayerCount: 2
Fore
SplineSet
85 229 m 1
 84 232 85 238 85 242 c 0
 85 293 133 433 196 446 c 1
 201 447 207 448 213 448 c 0
 285 448 393 358 398 340 c 0
 400 330 417 313 449 313 c 0
 457 313 467 314 477 317 c 0
 525 329 536 396 536 426 c 0
 536 432 537 437 536 439 c 1
 599 446 l 1
 600 443 600 439 600 434 c 0
 600 382 551 242 489 229 c 1
 483 228 477 229 471 229 c 0
 401 229 305 308 300 325 c 0
 298 335 273 351 236 351 c 0
 228 351 218 350 208 348 c 0
 162 336 151 278 151 251 c 0
 151 245 151 241 152 238 c 1
 85 229 l 1
EndSplineSet
EndChar
